<?xml version="1.0" standalone="no"?><!DOCTYPE svg PUBLIC "-//W3C//DTD SVG 1.1//EN" "http://www.w3.org/Graphics/SVG/1.1/DTD/svg11.dtd"><svg t="1597372250625" class="icon" viewBox="0 0 1024 1024" version="1.1" xmlns="http://www.w3.org/2000/svg" p-id="2381" xmlns:xlink="http://www.w3.org/1999/xlink" width="50" height="50"><defs><style type="text/css"></style></defs><path d="M307.2 495.7l374.3-374.3c9.4-9.4 24.6-9.4 34 0 9.4 9.4 9.4 24.6 0 34L341.2 529.7c-9.4 9.4-24.6 9.4-34 0-9.4-9.4-9.4-24.6 0-34z" fill="#333333" p-id="2382"></path><path d="M341.2 495.7L715.5 870c9.4 9.4 9.4 24.6 0 34-9.4 9.4-24.6 9.4-34 0L307.2 529.7c-9.4-9.4-9.4-24.6 0-34 9.4-9.4 24.6-9.4 34 0z" fill="#333333" p-id="2383"></path></svg>