<?xml version="1.0" standalone="no"?><!DOCTYPE svg PUBLIC "-//W3C//DTD SVG 1.1//EN" "http://www.w3.org/Graphics/SVG/1.1/DTD/svg11.dtd"><svg t="1597324781916" class="icon" viewBox="0 0 1024 1024" version="1.1" xmlns="http://www.w3.org/2000/svg" p-id="2589" xmlns:xlink="http://www.w3.org/1999/xlink" width="50" height="50"><defs><style type="text/css"></style></defs><path d="M911.36 1024h-201.728c-52.224 0-94.72-42.496-94.72-94.72v-834.56c0-52.224 42.496-94.72 94.72-94.72H911.36c52.224 0 94.72 42.496 94.72 94.72v834.56c0 52.224-42.496 94.72-94.72 94.72zM709.632 61.44c-18.432 0-33.28 14.848-33.28 33.28v834.56c0 18.432 14.848 33.28 33.28 33.28H911.36c18.432 0 33.28-14.848 33.28-33.28v-834.56c0-18.432-14.848-33.28-33.28-33.28h-201.728z" fill="#1a99de" p-id="2590"></path><path d="M645.632 759.808h329.728v61.44h-329.728z" fill="#1a99de" p-id="2591"></path><path d="M275.968 1020.416c-10.24 0-20.992-1.536-31.232-5.12l-171.52-59.904C24.064 938.496-2.048 884.224 15.36 835.072L270.336 102.4c17.408-49.152 71.168-75.264 120.832-58.368l171.52 59.904c24.064 8.192 43.008 25.6 54.272 48.128 11.264 22.528 12.288 48.64 4.096 72.192l-254.976 732.16c-14.336 39.424-51.2 64-90.112 64z m-10.752-63.488c17.408 6.144 36.352-3.072 42.496-20.48l254.976-732.16c3.072-8.192 2.56-17.408-1.536-25.6s-10.752-13.824-18.944-16.896L370.688 102.4c-17.408-6.144-36.352 3.072-42.496 20.48L73.216 855.04c-6.144 17.408 3.072 36.352 20.48 42.496l171.52 59.392z" fill="#1a99de" p-id="2592"></path><path d="M75.80672 754.688l20.1984-58.02496 292.05504 101.6832-20.20352 58.02496z" fill="#1a99de" p-id="2593"></path></svg>